# Blender v2.76 (sub 0) OBJ File: ''
# www.blender.org
mtllib box01.mtl
o Cube
v 1.000000 -1.031416 -1.000000
v 1.000000 -1.031416 1.000000
v -1.000000 -1.031416 1.000000
v -1.000000 -1.031416 -1.000000
v 1.000000 0.968584 -0.999999
v 0.999999 0.968584 1.000001
v -1.000000 0.968584 1.000000
v -1.000000 0.968584 -1.000000
v 0.000000 -1.031416 -1.000000
v 0.000000 -1.031416 1.000000
v 0.000000 0.968584 -1.000000
v -0.007706 1.102253 0.919112
v 0.000000 -0.031416 -1.000000
v -0.000000 -0.031416 1.000000
v -0.000000 0.968584 0.000000
v 0.000000 -1.031416 -0.000000
vn 0.000000 -1.000000 -0.000000
vn -0.034100 0.998800 -0.034100
vn 1.000000 0.000000 0.000000
vn 0.019600 0.019600 0.999600
vn -1.000000 -0.000000 -0.000000
vn 0.000000 0.000000 -1.000000
vn -0.019500 0.019500 0.999600
vn 0.034000 0.998800 -0.034000
usemtl Material
s off
f 9//1 16//1 10//1 3//1 4//1
f 11//2 8//2 7//2 12//2 15//2
f 1//3 5//3 6//3 2//3
f 10//4 14//4 12//4 7//4 3//4
f 3//5 7//5 8//5 4//5
f 11//6 13//6 9//6 4//6 8//6
f 5//6 1//6 9//6 13//6 11//6
f 2//7 6//7 12//7 14//7 10//7
f 5//8 11//8 15//8 12//8 6//8
f 1//1 2//1 10//1 16//1 9//1
